<mxfile host="app.diagrams.net" agent="Mozilla/5.0 (Windows NT 10.0; Win64; x64) AppleWebKit/537.36 (KHTML, like Gecko) Chrome/133.0.0.0 Safari/537.36" version="26.0.16">
  <diagram id="C5RBs43oDa-KdzZeNtuy" name="Page-1">
    <mxGraphModel dx="1518" dy="1783" grid="1" gridSize="10" guides="1" tooltips="1" connect="1" arrows="1" fold="1" page="1" pageScale="1" pageWidth="827" pageHeight="1169" math="0" shadow="0">
      <root>
        <mxCell id="WIyWlLk6GJQsqaUBKTNV-0" />
        <mxCell id="WIyWlLk6GJQsqaUBKTNV-1" parent="WIyWlLk6GJQsqaUBKTNV-0" />
        <mxCell id="AnJX8t043WB3RmfFxbvj-15" value="Post" style="swimlane;fontStyle=1;align=center;verticalAlign=top;childLayout=stackLayout;horizontal=1;startSize=28.266666666666666;horizontalStack=0;resizeParent=1;resizeParentMax=0;resizeLast=0;collapsible=0;marginBottom=0;" parent="WIyWlLk6GJQsqaUBKTNV-1" vertex="1">
          <mxGeometry x="712" y="-540" width="193" height="148.26666666666665" as="geometry" />
        </mxCell>
        <mxCell id="AnJX8t043WB3RmfFxbvj-18" value="-string title" style="text;strokeColor=none;fillColor=none;align=left;verticalAlign=top;spacingLeft=4;spacingRight=4;overflow=hidden;rotatable=0;points=[[0,0.5],[1,0.5]];portConstraint=eastwest;" parent="AnJX8t043WB3RmfFxbvj-15" vertex="1">
          <mxGeometry y="28.266666666666666" width="193" height="28" as="geometry" />
        </mxCell>
        <mxCell id="AnJX8t043WB3RmfFxbvj-123" value="-string content" style="text;strokeColor=none;fillColor=none;align=left;verticalAlign=top;spacingLeft=4;spacingRight=4;overflow=hidden;rotatable=0;points=[[0,0.5],[1,0.5]];portConstraint=eastwest;" parent="AnJX8t043WB3RmfFxbvj-15" vertex="1">
          <mxGeometry y="56.266666666666666" width="193" height="28" as="geometry" />
        </mxCell>
        <mxCell id="AnJX8t043WB3RmfFxbvj-24" style="line;strokeWidth=1;fillColor=none;align=left;verticalAlign=middle;spacingTop=-1;spacingLeft=3;spacingRight=3;rotatable=0;labelPosition=right;points=[];portConstraint=eastwest;strokeColor=inherit;" parent="AnJX8t043WB3RmfFxbvj-15" vertex="1">
          <mxGeometry y="84.26666666666667" width="193" height="8" as="geometry" />
        </mxCell>
        <mxCell id="AnJX8t043WB3RmfFxbvj-28" value="+manage" style="text;strokeColor=none;fillColor=none;align=left;verticalAlign=top;spacingLeft=4;spacingRight=4;overflow=hidden;rotatable=0;points=[[0,0.5],[1,0.5]];portConstraint=eastwest;" parent="AnJX8t043WB3RmfFxbvj-15" vertex="1">
          <mxGeometry y="92.26666666666667" width="193" height="28" as="geometry" />
        </mxCell>
        <mxCell id="AnJX8t043WB3RmfFxbvj-30" value="+share()" style="text;strokeColor=none;fillColor=none;align=left;verticalAlign=top;spacingLeft=4;spacingRight=4;overflow=hidden;rotatable=0;points=[[0,0.5],[1,0.5]];portConstraint=eastwest;" parent="AnJX8t043WB3RmfFxbvj-15" vertex="1">
          <mxGeometry y="120.26666666666667" width="193" height="28" as="geometry" />
        </mxCell>
        <mxCell id="AnJX8t043WB3RmfFxbvj-31" value="Comment" style="swimlane;fontStyle=1;align=center;verticalAlign=top;childLayout=stackLayout;horizontal=1;startSize=32;horizontalStack=0;resizeParent=1;resizeParentMax=0;resizeLast=0;collapsible=0;marginBottom=0;" parent="WIyWlLk6GJQsqaUBKTNV-1" vertex="1">
          <mxGeometry x="250" y="-500" width="210" height="168" as="geometry" />
        </mxCell>
        <mxCell id="AnJX8t043WB3RmfFxbvj-34" value="+content" style="text;strokeColor=none;fillColor=none;align=left;verticalAlign=top;spacingLeft=4;spacingRight=4;overflow=hidden;rotatable=0;points=[[0,0.5],[1,0.5]];portConstraint=eastwest;" parent="AnJX8t043WB3RmfFxbvj-31" vertex="1">
          <mxGeometry y="32" width="210" height="32" as="geometry" />
        </mxCell>
        <mxCell id="AnJX8t043WB3RmfFxbvj-37" style="line;strokeWidth=1;fillColor=none;align=left;verticalAlign=middle;spacingTop=-1;spacingLeft=3;spacingRight=3;rotatable=0;labelPosition=right;points=[];portConstraint=eastwest;strokeColor=inherit;" parent="AnJX8t043WB3RmfFxbvj-31" vertex="1">
          <mxGeometry y="64" width="210" height="8" as="geometry" />
        </mxCell>
        <mxCell id="AnJX8t043WB3RmfFxbvj-38" value="+edit()" style="text;strokeColor=none;fillColor=none;align=left;verticalAlign=top;spacingLeft=4;spacingRight=4;overflow=hidden;rotatable=0;points=[[0,0.5],[1,0.5]];portConstraint=eastwest;" parent="AnJX8t043WB3RmfFxbvj-31" vertex="1">
          <mxGeometry y="72" width="210" height="32" as="geometry" />
        </mxCell>
        <mxCell id="AnJX8t043WB3RmfFxbvj-39" value="+create()" style="text;strokeColor=none;fillColor=none;align=left;verticalAlign=top;spacingLeft=4;spacingRight=4;overflow=hidden;rotatable=0;points=[[0,0.5],[1,0.5]];portConstraint=eastwest;" parent="AnJX8t043WB3RmfFxbvj-31" vertex="1">
          <mxGeometry y="104" width="210" height="32" as="geometry" />
        </mxCell>
        <mxCell id="AnJX8t043WB3RmfFxbvj-135" value="+delete()" style="text;strokeColor=none;fillColor=none;align=left;verticalAlign=top;spacingLeft=4;spacingRight=4;overflow=hidden;rotatable=0;points=[[0,0.5],[1,0.5]];portConstraint=eastwest;" parent="AnJX8t043WB3RmfFxbvj-31" vertex="1">
          <mxGeometry y="136" width="210" height="32" as="geometry" />
        </mxCell>
        <mxCell id="AnJX8t043WB3RmfFxbvj-40" value="Connection" style="swimlane;fontStyle=1;align=center;verticalAlign=top;childLayout=stackLayout;horizontal=1;startSize=32;horizontalStack=0;resizeParent=1;resizeParentMax=0;resizeLast=0;collapsible=0;marginBottom=0;" parent="WIyWlLk6GJQsqaUBKTNV-1" vertex="1">
          <mxGeometry x="150" y="-70" width="244" height="200" as="geometry" />
        </mxCell>
        <mxCell id="AnJX8t043WB3RmfFxbvj-42" value="-User sender" style="text;strokeColor=none;fillColor=none;align=left;verticalAlign=top;spacingLeft=4;spacingRight=4;overflow=hidden;rotatable=0;points=[[0,0.5],[1,0.5]];portConstraint=eastwest;" parent="AnJX8t043WB3RmfFxbvj-40" vertex="1">
          <mxGeometry y="32" width="244" height="32" as="geometry" />
        </mxCell>
        <mxCell id="AnJX8t043WB3RmfFxbvj-43" value="-User receiver" style="text;strokeColor=none;fillColor=none;align=left;verticalAlign=top;spacingLeft=4;spacingRight=4;overflow=hidden;rotatable=0;points=[[0,0.5],[1,0.5]];portConstraint=eastwest;" parent="AnJX8t043WB3RmfFxbvj-40" vertex="1">
          <mxGeometry y="64" width="244" height="32" as="geometry" />
        </mxCell>
        <mxCell id="AnJX8t043WB3RmfFxbvj-44" value="-ConnectionStatus status" style="text;strokeColor=none;fillColor=none;align=left;verticalAlign=top;spacingLeft=4;spacingRight=4;overflow=hidden;rotatable=0;points=[[0,0.5],[1,0.5]];portConstraint=eastwest;" parent="AnJX8t043WB3RmfFxbvj-40" vertex="1">
          <mxGeometry y="96" width="244" height="32" as="geometry" />
        </mxCell>
        <mxCell id="AnJX8t043WB3RmfFxbvj-46" style="line;strokeWidth=1;fillColor=none;align=left;verticalAlign=middle;spacingTop=-1;spacingLeft=3;spacingRight=3;rotatable=0;labelPosition=right;points=[];portConstraint=eastwest;strokeColor=inherit;" parent="AnJX8t043WB3RmfFxbvj-40" vertex="1">
          <mxGeometry y="128" width="244" height="8" as="geometry" />
        </mxCell>
        <mxCell id="AnJX8t043WB3RmfFxbvj-47" value="+accept()" style="text;strokeColor=none;fillColor=none;align=left;verticalAlign=top;spacingLeft=4;spacingRight=4;overflow=hidden;rotatable=0;points=[[0,0.5],[1,0.5]];portConstraint=eastwest;" parent="AnJX8t043WB3RmfFxbvj-40" vertex="1">
          <mxGeometry y="136" width="244" height="32" as="geometry" />
        </mxCell>
        <mxCell id="AnJX8t043WB3RmfFxbvj-48" value="+reject()" style="text;strokeColor=none;fillColor=none;align=left;verticalAlign=top;spacingLeft=4;spacingRight=4;overflow=hidden;rotatable=0;points=[[0,0.5],[1,0.5]];portConstraint=eastwest;" parent="AnJX8t043WB3RmfFxbvj-40" vertex="1">
          <mxGeometry y="168" width="244" height="32" as="geometry" />
        </mxCell>
        <mxCell id="AnJX8t043WB3RmfFxbvj-49" value="Notification" style="swimlane;fontStyle=1;align=center;verticalAlign=top;childLayout=stackLayout;horizontal=1;startSize=32;horizontalStack=0;resizeParent=1;resizeParentMax=0;resizeLast=0;collapsible=0;marginBottom=0;" parent="WIyWlLk6GJQsqaUBKTNV-1" vertex="1">
          <mxGeometry x="1150" y="200" width="228" height="168" as="geometry" />
        </mxCell>
        <mxCell id="AnJX8t043WB3RmfFxbvj-52" value="-string content" style="text;strokeColor=none;fillColor=none;align=left;verticalAlign=top;spacingLeft=4;spacingRight=4;overflow=hidden;rotatable=0;points=[[0,0.5],[1,0.5]];portConstraint=eastwest;" parent="AnJX8t043WB3RmfFxbvj-49" vertex="1">
          <mxGeometry y="32" width="228" height="32" as="geometry" />
        </mxCell>
        <mxCell id="AnJX8t043WB3RmfFxbvj-53" value="-NotificationType type" style="text;strokeColor=none;fillColor=none;align=left;verticalAlign=top;spacingLeft=4;spacingRight=4;overflow=hidden;rotatable=0;points=[[0,0.5],[1,0.5]];portConstraint=eastwest;" parent="AnJX8t043WB3RmfFxbvj-49" vertex="1">
          <mxGeometry y="64" width="228" height="32" as="geometry" />
        </mxCell>
        <mxCell id="AnJX8t043WB3RmfFxbvj-55" value="-boolean isRead" style="text;strokeColor=none;fillColor=none;align=left;verticalAlign=top;spacingLeft=4;spacingRight=4;overflow=hidden;rotatable=0;points=[[0,0.5],[1,0.5]];portConstraint=eastwest;" parent="AnJX8t043WB3RmfFxbvj-49" vertex="1">
          <mxGeometry y="96" width="228" height="32" as="geometry" />
        </mxCell>
        <mxCell id="AnJX8t043WB3RmfFxbvj-56" style="line;strokeWidth=1;fillColor=none;align=left;verticalAlign=middle;spacingTop=-1;spacingLeft=3;spacingRight=3;rotatable=0;labelPosition=right;points=[];portConstraint=eastwest;strokeColor=inherit;" parent="AnJX8t043WB3RmfFxbvj-49" vertex="1">
          <mxGeometry y="128" width="228" height="8" as="geometry" />
        </mxCell>
        <mxCell id="AnJX8t043WB3RmfFxbvj-57" value="+markAsRead()" style="text;strokeColor=none;fillColor=none;align=left;verticalAlign=top;spacingLeft=4;spacingRight=4;overflow=hidden;rotatable=0;points=[[0,0.5],[1,0.5]];portConstraint=eastwest;" parent="AnJX8t043WB3RmfFxbvj-49" vertex="1">
          <mxGeometry y="136" width="228" height="32" as="geometry" />
        </mxCell>
        <mxCell id="AnJX8t043WB3RmfFxbvj-69" value="Message" style="swimlane;fontStyle=1;align=center;verticalAlign=top;childLayout=stackLayout;horizontal=1;startSize=32;horizontalStack=0;resizeParent=1;resizeParentMax=0;resizeLast=0;collapsible=0;marginBottom=0;" parent="WIyWlLk6GJQsqaUBKTNV-1" vertex="1">
          <mxGeometry x="1140" y="-111.73000000000002" width="180" height="168" as="geometry" />
        </mxCell>
        <mxCell id="AnJX8t043WB3RmfFxbvj-70" value="-int id" style="text;strokeColor=none;fillColor=none;align=left;verticalAlign=top;spacingLeft=4;spacingRight=4;overflow=hidden;rotatable=0;points=[[0,0.5],[1,0.5]];portConstraint=eastwest;" parent="AnJX8t043WB3RmfFxbvj-69" vertex="1">
          <mxGeometry y="32" width="180" height="32" as="geometry" />
        </mxCell>
        <mxCell id="AnJX8t043WB3RmfFxbvj-73" value="-content : string" style="text;strokeColor=none;fillColor=none;align=left;verticalAlign=top;spacingLeft=4;spacingRight=4;overflow=hidden;rotatable=0;points=[[0,0.5],[1,0.5]];portConstraint=eastwest;" parent="AnJX8t043WB3RmfFxbvj-69" vertex="1">
          <mxGeometry y="64" width="180" height="32" as="geometry" />
        </mxCell>
        <mxCell id="AnJX8t043WB3RmfFxbvj-75" value="-isRead : string" style="text;strokeColor=none;fillColor=none;align=left;verticalAlign=top;spacingLeft=4;spacingRight=4;overflow=hidden;rotatable=0;points=[[0,0.5],[1,0.5]];portConstraint=eastwest;" parent="AnJX8t043WB3RmfFxbvj-69" vertex="1">
          <mxGeometry y="96" width="180" height="32" as="geometry" />
        </mxCell>
        <mxCell id="AnJX8t043WB3RmfFxbvj-76" style="line;strokeWidth=1;fillColor=none;align=left;verticalAlign=middle;spacingTop=-1;spacingLeft=3;spacingRight=3;rotatable=0;labelPosition=right;points=[];portConstraint=eastwest;strokeColor=inherit;" parent="AnJX8t043WB3RmfFxbvj-69" vertex="1">
          <mxGeometry y="128" width="180" height="8" as="geometry" />
        </mxCell>
        <mxCell id="AnJX8t043WB3RmfFxbvj-77" value="+markAsRead()" style="text;strokeColor=none;fillColor=none;align=left;verticalAlign=top;spacingLeft=4;spacingRight=4;overflow=hidden;rotatable=0;points=[[0,0.5],[1,0.5]];portConstraint=eastwest;" parent="AnJX8t043WB3RmfFxbvj-69" vertex="1">
          <mxGeometry y="136" width="180" height="32" as="geometry" />
        </mxCell>
        <mxCell id="AnJX8t043WB3RmfFxbvj-87" value="" style="curved=1;startArrow=none;endArrow=none;exitX=0.25;exitY=0;entryX=0.218;entryY=1.05;rounded=0;exitDx=0;exitDy=0;entryDx=0;entryDy=0;entryPerimeter=0;" parent="WIyWlLk6GJQsqaUBKTNV-1" target="AnJX8t043WB3RmfFxbvj-30" edge="1">
          <mxGeometry relative="1" as="geometry">
            <Array as="points" />
            <mxPoint x="761.5000000000005" y="-70.00000000000023" as="sourcePoint" />
          </mxGeometry>
        </mxCell>
        <mxCell id="AnJX8t043WB3RmfFxbvj-88" value="1" style="edgeLabel;resizable=0;labelBackgroundColor=none;fontSize=12;align=left;verticalAlign=top;" parent="AnJX8t043WB3RmfFxbvj-87" vertex="1">
          <mxGeometry x="-1" relative="1" as="geometry">
            <mxPoint x="7" y="-30" as="offset" />
          </mxGeometry>
        </mxCell>
        <mxCell id="AnJX8t043WB3RmfFxbvj-89" value="*" style="edgeLabel;resizable=0;labelBackgroundColor=none;fontSize=12;align=right;verticalAlign=bottom;" parent="AnJX8t043WB3RmfFxbvj-87" vertex="1">
          <mxGeometry x="1" relative="1" as="geometry">
            <mxPoint x="-14" y="20" as="offset" />
          </mxGeometry>
        </mxCell>
        <mxCell id="IaiW1Q1Qw_tTqlwZuTO5-1" value="1" style="edgeLabel;resizable=0;labelBackgroundColor=none;fontSize=12;align=left;verticalAlign=top;" parent="AnJX8t043WB3RmfFxbvj-87" vertex="1">
          <mxGeometry x="-1" relative="1" as="geometry">
            <mxPoint x="-61" y="-30" as="offset" />
          </mxGeometry>
        </mxCell>
        <mxCell id="AnJX8t043WB3RmfFxbvj-93" value="" style="curved=1;startArrow=none;endArrow=none;exitX=0;exitY=0.61;entryX=1;entryY=0.5;rounded=0;entryDx=0;entryDy=0;" parent="WIyWlLk6GJQsqaUBKTNV-1" target="AnJX8t043WB3RmfFxbvj-44" edge="1">
          <mxGeometry relative="1" as="geometry">
            <Array as="points" />
            <mxPoint x="700" y="43.46087142857141" as="sourcePoint" />
          </mxGeometry>
        </mxCell>
        <mxCell id="AnJX8t043WB3RmfFxbvj-94" value="1" style="edgeLabel;resizable=0;labelBackgroundColor=none;fontSize=12;align=right;verticalAlign=top;" parent="AnJX8t043WB3RmfFxbvj-93" vertex="1">
          <mxGeometry x="-1" relative="1" as="geometry" />
        </mxCell>
        <mxCell id="AnJX8t043WB3RmfFxbvj-95" value="*" style="edgeLabel;resizable=0;labelBackgroundColor=none;fontSize=12;align=left;verticalAlign=bottom;" parent="AnJX8t043WB3RmfFxbvj-93" vertex="1">
          <mxGeometry x="1" relative="1" as="geometry" />
        </mxCell>
        <mxCell id="AnJX8t043WB3RmfFxbvj-96" value="" style="curved=1;startArrow=none;endArrow=none;entryX=0.5;entryY=0;rounded=0;exitX=1.004;exitY=0.924;exitDx=0;exitDy=0;exitPerimeter=0;" parent="WIyWlLk6GJQsqaUBKTNV-1" source="JkeYIZ-ymS_w-qwQB8KQ-8" target="AnJX8t043WB3RmfFxbvj-49" edge="1">
          <mxGeometry relative="1" as="geometry">
            <Array as="points" />
            <mxPoint x="944.5240000000003" y="115.53742857142879" as="sourcePoint" />
          </mxGeometry>
        </mxCell>
        <mxCell id="AnJX8t043WB3RmfFxbvj-97" value="1" style="edgeLabel;resizable=0;labelBackgroundColor=none;fontSize=12;align=right;verticalAlign=top;" parent="AnJX8t043WB3RmfFxbvj-96" vertex="1">
          <mxGeometry x="-1" relative="1" as="geometry" />
        </mxCell>
        <mxCell id="AnJX8t043WB3RmfFxbvj-98" value="*" style="edgeLabel;resizable=0;labelBackgroundColor=none;fontSize=12;align=left;verticalAlign=bottom;" parent="AnJX8t043WB3RmfFxbvj-96" vertex="1">
          <mxGeometry x="1" relative="1" as="geometry" />
        </mxCell>
        <mxCell id="AnJX8t043WB3RmfFxbvj-105" value="" style="curved=1;startArrow=none;endArrow=none;exitX=1.004;exitY=0.385;entryX=0;entryY=0.5;rounded=0;entryDx=0;entryDy=0;exitDx=0;exitDy=0;exitPerimeter=0;" parent="WIyWlLk6GJQsqaUBKTNV-1" source="JkeYIZ-ymS_w-qwQB8KQ-8" target="AnJX8t043WB3RmfFxbvj-73" edge="1">
          <mxGeometry relative="1" as="geometry">
            <Array as="points" />
            <mxPoint x="946" y="50.00142857142828" as="sourcePoint" />
          </mxGeometry>
        </mxCell>
        <mxCell id="AnJX8t043WB3RmfFxbvj-106" value="1" style="edgeLabel;resizable=0;labelBackgroundColor=none;fontSize=12;align=left;verticalAlign=top;" parent="AnJX8t043WB3RmfFxbvj-105" vertex="1">
          <mxGeometry x="-1" relative="1" as="geometry" />
        </mxCell>
        <mxCell id="AnJX8t043WB3RmfFxbvj-107" value="*" style="edgeLabel;resizable=0;labelBackgroundColor=none;fontSize=12;align=right;verticalAlign=bottom;" parent="AnJX8t043WB3RmfFxbvj-105" vertex="1">
          <mxGeometry x="1" relative="1" as="geometry" />
        </mxCell>
        <mxCell id="AnJX8t043WB3RmfFxbvj-108" value="" style="curved=1;startArrow=none;endArrow=none;exitX=0;exitY=0.5;entryX=1;entryY=0.42;rounded=0;exitDx=0;exitDy=0;" parent="WIyWlLk6GJQsqaUBKTNV-1" target="AnJX8t043WB3RmfFxbvj-31" edge="1">
          <mxGeometry x="-0.0023" relative="1" as="geometry">
            <Array as="points" />
            <mxPoint x="712" y="-433.73333333333335" as="sourcePoint" />
            <mxPoint as="offset" />
          </mxGeometry>
        </mxCell>
        <mxCell id="AnJX8t043WB3RmfFxbvj-109" value="1" style="edgeLabel;resizable=0;labelBackgroundColor=none;fontSize=12;align=right;verticalAlign=top;" parent="AnJX8t043WB3RmfFxbvj-108" vertex="1">
          <mxGeometry x="-1" relative="1" as="geometry" />
        </mxCell>
        <mxCell id="AnJX8t043WB3RmfFxbvj-110" value="*" style="edgeLabel;resizable=0;labelBackgroundColor=none;fontSize=12;align=left;verticalAlign=bottom;" parent="AnJX8t043WB3RmfFxbvj-108" vertex="1">
          <mxGeometry x="1" relative="1" as="geometry">
            <mxPoint x="10" as="offset" />
          </mxGeometry>
        </mxCell>
        <mxCell id="IaiW1Q1Qw_tTqlwZuTO5-2" value="*" style="edgeLabel;resizable=0;labelBackgroundColor=none;fontSize=12;align=left;verticalAlign=bottom;" parent="AnJX8t043WB3RmfFxbvj-108" vertex="1">
          <mxGeometry x="1" relative="1" as="geometry">
            <mxPoint y="99" as="offset" />
          </mxGeometry>
        </mxCell>
        <mxCell id="AnJX8t043WB3RmfFxbvj-128" value="Likes" style="swimlane;fontStyle=1;align=center;verticalAlign=top;childLayout=stackLayout;horizontal=1;startSize=28.266666666666666;horizontalStack=0;resizeParent=1;resizeParentMax=0;resizeLast=0;collapsible=0;marginBottom=0;" parent="WIyWlLk6GJQsqaUBKTNV-1" vertex="1">
          <mxGeometry x="860" y="-300" width="193" height="92.26666666666667" as="geometry" />
        </mxCell>
        <mxCell id="AnJX8t043WB3RmfFxbvj-131" style="line;strokeWidth=1;fillColor=none;align=left;verticalAlign=middle;spacingTop=-1;spacingLeft=3;spacingRight=3;rotatable=0;labelPosition=right;points=[];portConstraint=eastwest;strokeColor=inherit;" parent="AnJX8t043WB3RmfFxbvj-128" vertex="1">
          <mxGeometry y="28.266666666666666" width="193" height="8" as="geometry" />
        </mxCell>
        <mxCell id="AnJX8t043WB3RmfFxbvj-132" value="+ like()" style="text;strokeColor=none;fillColor=none;align=left;verticalAlign=top;spacingLeft=4;spacingRight=4;overflow=hidden;rotatable=0;points=[[0,0.5],[1,0.5]];portConstraint=eastwest;" parent="AnJX8t043WB3RmfFxbvj-128" vertex="1">
          <mxGeometry y="36.266666666666666" width="193" height="28" as="geometry" />
        </mxCell>
        <mxCell id="AnJX8t043WB3RmfFxbvj-133" value="+ unlike()" style="text;strokeColor=none;fillColor=none;align=left;verticalAlign=top;spacingLeft=4;spacingRight=4;overflow=hidden;rotatable=0;points=[[0,0.5],[1,0.5]];portConstraint=eastwest;" parent="AnJX8t043WB3RmfFxbvj-128" vertex="1">
          <mxGeometry y="64.26666666666667" width="193" height="28" as="geometry" />
        </mxCell>
        <mxCell id="AnJX8t043WB3RmfFxbvj-134" value="" style="endArrow=none;dashed=1;html=1;rounded=0;" parent="WIyWlLk6GJQsqaUBKTNV-1" edge="1">
          <mxGeometry width="50" height="50" relative="1" as="geometry">
            <mxPoint x="760" y="-240" as="sourcePoint" />
            <mxPoint x="860" y="-240" as="targetPoint" />
          </mxGeometry>
        </mxCell>
        <mxCell id="IaiW1Q1Qw_tTqlwZuTO5-0" value="" style="endArrow=none;html=1;rounded=0;exitX=1.006;exitY=0.977;exitDx=0;exitDy=0;exitPerimeter=0;entryX=0;entryY=0;entryDx=0;entryDy=0;" parent="WIyWlLk6GJQsqaUBKTNV-1" source="AnJX8t043WB3RmfFxbvj-135" edge="1">
          <mxGeometry width="50" height="50" relative="1" as="geometry">
            <mxPoint x="790" y="-210" as="sourcePoint" />
            <mxPoint x="700" y="-70.00000000000023" as="targetPoint" />
          </mxGeometry>
        </mxCell>
        <mxCell id="IaiW1Q1Qw_tTqlwZuTO5-4" value="Skill" style="swimlane;fontStyle=1;align=center;verticalAlign=top;childLayout=stackLayout;horizontal=1;startSize=35.55555555555556;horizontalStack=0;resizeParent=1;resizeParentMax=0;resizeLast=0;collapsible=0;marginBottom=0;" parent="WIyWlLk6GJQsqaUBKTNV-1" vertex="1">
          <mxGeometry x="712" y="430" width="153" height="89.55555555555556" as="geometry" />
        </mxCell>
        <mxCell id="IaiW1Q1Qw_tTqlwZuTO5-5" value="- skill_name" style="text;strokeColor=none;fillColor=none;align=left;verticalAlign=top;spacingLeft=4;spacingRight=4;overflow=hidden;rotatable=0;points=[[0,0.5],[1,0.5]];portConstraint=eastwest;" parent="IaiW1Q1Qw_tTqlwZuTO5-4" vertex="1">
          <mxGeometry y="35.55555555555556" width="153" height="36" as="geometry" />
        </mxCell>
        <mxCell id="IaiW1Q1Qw_tTqlwZuTO5-7" style="line;strokeWidth=1;fillColor=none;align=left;verticalAlign=middle;spacingTop=-1;spacingLeft=3;spacingRight=3;rotatable=0;labelPosition=right;points=[];portConstraint=eastwest;strokeColor=inherit;" parent="IaiW1Q1Qw_tTqlwZuTO5-4" vertex="1">
          <mxGeometry y="71.55555555555556" width="153" height="18" as="geometry" />
        </mxCell>
        <mxCell id="IaiW1Q1Qw_tTqlwZuTO5-11" value="Project" style="swimlane;fontStyle=1;align=center;verticalAlign=top;childLayout=stackLayout;horizontal=1;startSize=35.55555555555556;horizontalStack=0;resizeParent=1;resizeParentMax=0;resizeLast=0;collapsible=0;marginBottom=0;" parent="WIyWlLk6GJQsqaUBKTNV-1" vertex="1">
          <mxGeometry x="940" y="430" width="153" height="87.99555555555555" as="geometry" />
        </mxCell>
        <mxCell id="IaiW1Q1Qw_tTqlwZuTO5-12" value="- Project_title&#xa;- Summary&#xa;" style="text;strokeColor=none;fillColor=none;align=left;verticalAlign=top;spacingLeft=4;spacingRight=4;overflow=hidden;rotatable=0;points=[[0,0.5],[1,0.5]];portConstraint=eastwest;" parent="IaiW1Q1Qw_tTqlwZuTO5-11" vertex="1">
          <mxGeometry y="35.55555555555556" width="153" height="34.44" as="geometry" />
        </mxCell>
        <mxCell id="IaiW1Q1Qw_tTqlwZuTO5-13" style="line;strokeWidth=1;fillColor=none;align=left;verticalAlign=middle;spacingTop=-1;spacingLeft=3;spacingRight=3;rotatable=0;labelPosition=right;points=[];portConstraint=eastwest;strokeColor=inherit;" parent="IaiW1Q1Qw_tTqlwZuTO5-11" vertex="1">
          <mxGeometry y="69.99555555555555" width="153" height="18" as="geometry" />
        </mxCell>
        <mxCell id="IaiW1Q1Qw_tTqlwZuTO5-28" value="Certificate" style="swimlane;fontStyle=1;align=center;verticalAlign=top;childLayout=stackLayout;horizontal=1;startSize=35.55555555555556;horizontalStack=0;resizeParent=1;resizeParentMax=0;resizeLast=0;collapsible=0;marginBottom=0;" parent="WIyWlLk6GJQsqaUBKTNV-1" vertex="1">
          <mxGeometry x="470" y="429.99555555555554" width="153" height="89.55555555555556" as="geometry" />
        </mxCell>
        <mxCell id="IaiW1Q1Qw_tTqlwZuTO5-29" value="- certificate_title" style="text;strokeColor=none;fillColor=none;align=left;verticalAlign=top;spacingLeft=4;spacingRight=4;overflow=hidden;rotatable=0;points=[[0,0.5],[1,0.5]];portConstraint=eastwest;" parent="IaiW1Q1Qw_tTqlwZuTO5-28" vertex="1">
          <mxGeometry y="35.55555555555556" width="153" height="36" as="geometry" />
        </mxCell>
        <mxCell id="IaiW1Q1Qw_tTqlwZuTO5-30" style="line;strokeWidth=1;fillColor=none;align=left;verticalAlign=middle;spacingTop=-1;spacingLeft=3;spacingRight=3;rotatable=0;labelPosition=right;points=[];portConstraint=eastwest;strokeColor=inherit;" parent="IaiW1Q1Qw_tTqlwZuTO5-28" vertex="1">
          <mxGeometry y="71.55555555555556" width="153" height="18" as="geometry" />
        </mxCell>
        <mxCell id="IaiW1Q1Qw_tTqlwZuTO5-31" value="" style="endArrow=diamondThin;endFill=1;endSize=24;html=1;rounded=0;exitX=1;exitY=0;exitDx=0;exitDy=0;entryX=-0.003;entryY=0.994;entryDx=0;entryDy=0;entryPerimeter=0;" parent="WIyWlLk6GJQsqaUBKTNV-1" source="IaiW1Q1Qw_tTqlwZuTO5-28" edge="1" target="JkeYIZ-ymS_w-qwQB8KQ-10">
          <mxGeometry width="160" relative="1" as="geometry">
            <mxPoint x="270" y="350" as="sourcePoint" />
            <mxPoint x="450" y="370" as="targetPoint" />
          </mxGeometry>
        </mxCell>
        <mxCell id="IaiW1Q1Qw_tTqlwZuTO5-33" value="" style="endArrow=diamondThin;endFill=1;endSize=24;html=1;rounded=0;exitX=0.5;exitY=0;exitDx=0;exitDy=0;entryX=0.539;entryY=1.053;entryDx=0;entryDy=0;entryPerimeter=0;" parent="WIyWlLk6GJQsqaUBKTNV-1" source="IaiW1Q1Qw_tTqlwZuTO5-4" target="JkeYIZ-ymS_w-qwQB8KQ-10" edge="1">
          <mxGeometry width="160" relative="1" as="geometry">
            <mxPoint x="273" y="492" as="sourcePoint" />
            <mxPoint x="485.03999999999996" y="372.98199999999997" as="targetPoint" />
          </mxGeometry>
        </mxCell>
        <mxCell id="IaiW1Q1Qw_tTqlwZuTO5-35" value="" style="endArrow=diamondThin;endFill=1;endSize=24;html=1;rounded=0;exitX=0.5;exitY=0;exitDx=0;exitDy=0;entryX=0.85;entryY=1.053;entryDx=0;entryDy=0;entryPerimeter=0;" parent="WIyWlLk6GJQsqaUBKTNV-1" source="IaiW1Q1Qw_tTqlwZuTO5-11" target="JkeYIZ-ymS_w-qwQB8KQ-10" edge="1">
          <mxGeometry width="160" relative="1" as="geometry">
            <mxPoint x="677" y="490" as="sourcePoint" />
            <mxPoint x="610.96" y="370" as="targetPoint" />
          </mxGeometry>
        </mxCell>
        <mxCell id="JkeYIZ-ymS_w-qwQB8KQ-7" value="User" style="swimlane;fontStyle=1;align=center;verticalAlign=top;childLayout=stackLayout;horizontal=1;startSize=26;horizontalStack=0;resizeParent=1;resizeParentMax=0;resizeLast=0;collapsible=1;marginBottom=0;whiteSpace=wrap;html=1;" vertex="1" parent="WIyWlLk6GJQsqaUBKTNV-1">
          <mxGeometry x="700" y="-70" width="240" height="230" as="geometry" />
        </mxCell>
        <mxCell id="JkeYIZ-ymS_w-qwQB8KQ-8" value="- name&lt;div&gt;- email&lt;/div&gt;&lt;div&gt;- password&lt;/div&gt;&lt;div&gt;- profile_picture&lt;/div&gt;&lt;div&gt;- cover_image&lt;/div&gt;&lt;div&gt;- bio&lt;/div&gt;&lt;div&gt;- github_url&lt;/div&gt;&lt;div&gt;- linkedin_url&lt;/div&gt;&lt;div&gt;&lt;br&gt;&lt;/div&gt;" style="text;strokeColor=none;fillColor=none;align=left;verticalAlign=top;spacingLeft=4;spacingRight=4;overflow=hidden;rotatable=0;points=[[0,0.5],[1,0.5]];portConstraint=eastwest;whiteSpace=wrap;html=1;" vertex="1" parent="JkeYIZ-ymS_w-qwQB8KQ-7">
          <mxGeometry y="26" width="240" height="124" as="geometry" />
        </mxCell>
        <mxCell id="JkeYIZ-ymS_w-qwQB8KQ-9" value="" style="line;strokeWidth=1;fillColor=none;align=left;verticalAlign=middle;spacingTop=-1;spacingLeft=3;spacingRight=3;rotatable=0;labelPosition=right;points=[];portConstraint=eastwest;strokeColor=inherit;" vertex="1" parent="JkeYIZ-ymS_w-qwQB8KQ-7">
          <mxGeometry y="150" width="240" height="8" as="geometry" />
        </mxCell>
        <mxCell id="JkeYIZ-ymS_w-qwQB8KQ-10" value="+ register()&lt;div&gt;+ login()&lt;/div&gt;&lt;div&gt;+ complete()&lt;/div&gt;&lt;div&gt;+ update&lt;/div&gt;" style="text;strokeColor=none;fillColor=none;align=left;verticalAlign=top;spacingLeft=4;spacingRight=4;overflow=hidden;rotatable=0;points=[[0,0.5],[1,0.5]];portConstraint=eastwest;whiteSpace=wrap;html=1;" vertex="1" parent="JkeYIZ-ymS_w-qwQB8KQ-7">
          <mxGeometry y="158" width="240" height="72" as="geometry" />
        </mxCell>
      </root>
    </mxGraphModel>
  </diagram>
</mxfile>
